<svg id="Page_1" data-name="Page 1" xmlns="http://www.w3.org/2000/svg" xmlns:xlink="http://www.w3.org/1999/xlink" viewBox="0 0 30.71989 17.27969"><defs><clipPath id="clip-path"><rect x="-0.0003" y="0.00029" width="30.7202" height="17.2794" fill="none"/></clipPath></defs><title>gerrysweeney229_1</title><g id="Page_1-2" data-name="Page 1"><g clip-path="url(#clip-path)"><path d="M30.59912,17.27969H.12061a.12.12,0,0,1-.12012-.12011V.12051A.12.12,0,0,1,.12061.0004H30.59912a.12.12,0,0,1,.12012.12011V17.15958A.12.12,0,0,1,30.59912,17.27969ZM.24072,17.03946H30.479V.24063H.24072Z" fill="#c1c0c0"/><rect x="0.7189" y="0.72029" width="19.6798" height="1.1999" fill="#007adb"/><rect x="0.7189" y="2.88029" width="19.6798" height="0.72" fill="#8fcdf7"/><rect x="0.7189" y="4.32029" width="19.6798" height="0.72" fill="#8fcdf7"/><rect x="0.7189" y="5.76029" width="19.6798" height="0.72" fill="#8fcdf7"/><rect x="0.7189" y="7.20029" width="7.92" height="0.72" fill="#8fcdf7"/><rect x="0.7189" y="8.64029" width="19.6798" height="0.72" fill="#8fcdf7"/><rect x="0.7189" y="10.08029" width="19.6798" height="0.72" fill="#8fcdf7"/><rect x="0.7189" y="11.52029" width="19.6798" height="0.72" fill="#8fcdf7"/><rect x="0.7189" y="12.96029" width="7.92" height="0.72" fill="#8fcdf7"/><rect x="0.7189" y="14.40029" width="19.6798" height="0.72" fill="#8fcdf7"/><rect x="0.7189" y="15.84029" width="19.6798" height="0.72" fill="#8fcdf7"/></g></g></svg>