<svg xmlns="http://www.w3.org/2000/svg" xmlns:xlink="http://www.w3.org/1999/xlink" viewBox="0 0 30.71989 17.27969"><defs><clipPath id="clip-path"><rect x="-0.0003" y="0.00029" width="30.7202" height="17.2794" fill="none"/></clipPath></defs><title>gerrysweeney229_2</title><g id="Page_2" data-name="Page 2"><g id="Page_2-2" data-name="Page 2"><g clip-path="url(#clip-path)"><path d="M30.599,17.27969H.12044a.12.12,0,0,1-.12012-.12011V.12051A.12.12,0,0,1,.12044.0004H30.599a.12.12,0,0,1,.12012.12011V17.15958A.12.12,0,0,1,30.599,17.27969ZM.24055,17.03946H30.47884V.24063H.24055Z" fill="#c1c0c0"/><rect x="0.7189" y="0.72029" width="19.6798" height="1.1999" fill="#007adb"/><rect x="0.7189" y="2.88029" width="19.6798" height="0.72" fill="#8fcdf7"/><rect x="0.7189" y="4.32029" width="19.6798" height="0.72" fill="#8fcdf7"/><rect x="0.7189" y="5.76029" width="19.6798" height="0.72" fill="#8fcdf7"/><rect x="0.7189" y="7.20029" width="7.92" height="0.72" fill="#8fcdf7"/><rect x="0.7189" y="8.64029" width="19.6798" height="0.72" fill="#8fcdf7"/><rect x="0.7189" y="10.08029" width="19.6798" height="0.72" fill="#8fcdf7"/><rect x="0.7189" y="11.52029" width="19.6798" height="0.72" fill="#8fcdf7"/><rect x="0.7189" y="12.96029" width="7.92" height="0.72" fill="#8fcdf7"/><rect x="0.7189" y="14.40029" width="19.6798" height="0.72" fill="#8fcdf7"/><rect x="0.7189" y="15.84029" width="19.6798" height="0.72" fill="#8fcdf7"/><rect x="21.3593" y="0.72029" width="8.64" height="0.72" fill="#8fcdf7"/><rect x="22.0793" y="1.92019" width="7.92" height="0.4802" fill="#8fcdf7"/><rect x="22.0793" y="2.88029" width="7.92" height="0.4802" fill="#8fcdf7"/><rect x="23.5193" y="3.84039" width="6.48" height="0.4802" fill="#8fcdf7"/><rect x="23.5193" y="4.80049" width="6.48" height="0.4801" fill="#8fcdf7"/><rect x="22.0793" y="5.76059" width="7.92" height="0.4801" fill="#8fcdf7"/><rect x="21.1192" y="0.72029" width="0.4802" height="5.5199" fill="#007adb"/></g></g></g></svg>