<svg xmlns="http://www.w3.org/2000/svg" xmlns:xlink="http://www.w3.org/1999/xlink" viewBox="0 0 30.71989 17.27969"><defs><clipPath id="clip-path"><rect x="-0.0003" y="0.00029" width="30.7202" height="17.2794" fill="none"/></clipPath></defs><title>gerrysweeney229_3</title><g id="Page_3" data-name="Page 3"><g id="Page_3-2" data-name="Page 3"><g clip-path="url(#clip-path)"><path d="M30.59879,17.27969H.12027a.12.12,0,0,1-.12012-.12011V.12051A.12.12,0,0,1,.12027.0004H30.59879a.12.12,0,0,1,.12011.12011V17.15958A.12.12,0,0,1,30.59879,17.27969ZM.24039,17.03946H30.47867V.24063H.24039Z" fill="#c1c0c0"/><rect x="0.7189" y="0.72029" width="29.2804" height="1.1999" fill="#007adb"/><rect x="0.7189" y="2.88029" width="5.2806" height="0.72" fill="#8fcdf7"/><rect x="0.7189" y="4.32029" width="5.2806" height="0.72" fill="#8fcdf7"/><rect x="0.7189" y="5.76029" width="5.2806" height="0.72" fill="#8fcdf7"/><rect x="0.7189" y="7.20029" width="5.2806" height="0.72" fill="#8fcdf7"/><rect x="0.7189" y="8.64029" width="5.2806" height="0.72" fill="#8fcdf7"/><rect x="0.7189" y="10.08029" width="5.2806" height="0.72" fill="#8fcdf7"/><rect x="0.7189" y="11.52029" width="5.2806" height="0.72" fill="#8fcdf7"/><rect x="0.7189" y="12.96029" width="5.2806" height="0.72" fill="#8fcdf7"/><rect x="0.7189" y="14.40029" width="5.2806" height="0.72" fill="#8fcdf7"/><rect x="0.7189" y="15.84029" width="5.2806" height="0.72" fill="#8fcdf7"/><rect x="24.7187" y="2.88029" width="5.2806" height="0.72" fill="#8fcdf7"/><rect x="24.7187" y="4.32029" width="5.2806" height="0.72" fill="#8fcdf7"/><rect x="24.7187" y="5.76029" width="5.2806" height="0.72" fill="#8fcdf7"/><rect x="24.7187" y="7.20029" width="5.2806" height="0.72" fill="#8fcdf7"/><rect x="24.7187" y="8.64029" width="5.2806" height="0.72" fill="#8fcdf7"/><rect x="24.7187" y="10.08029" width="5.2806" height="0.72" fill="#8fcdf7"/><rect x="24.7187" y="11.52029" width="5.2806" height="0.72" fill="#8fcdf7"/><rect x="24.7187" y="12.96029" width="5.2806" height="0.72" fill="#8fcdf7"/><rect x="24.7187" y="14.40029" width="5.2806" height="0.72" fill="#8fcdf7"/><rect x="24.7187" y="15.84029" width="5.2806" height="0.72" fill="#8fcdf7"/><rect x="18.7189" y="2.88029" width="5.2806" height="0.72" fill="#8fcdf7"/><rect x="18.7189" y="4.32029" width="5.2806" height="0.72" fill="#8fcdf7"/><rect x="18.7189" y="5.76029" width="5.2806" height="0.72" fill="#8fcdf7"/><rect x="18.7189" y="7.20029" width="5.2806" height="0.72" fill="#8fcdf7"/><rect x="18.7189" y="8.64029" width="5.2806" height="0.72" fill="#8fcdf7"/><rect x="18.7189" y="10.08029" width="5.2806" height="0.72" fill="#8fcdf7"/><rect x="18.7189" y="11.52029" width="5.2806" height="0.72" fill="#8fcdf7"/><rect x="18.7189" y="12.96029" width="5.2806" height="0.72" fill="#8fcdf7"/><rect x="18.7189" y="14.40029" width="5.2806" height="0.72" fill="#8fcdf7"/><rect x="18.7189" y="15.84029" width="5.2806" height="0.72" fill="#8fcdf7"/><rect x="12.7188" y="2.88029" width="5.2806" height="0.72" fill="#8fcdf7"/><rect x="12.7188" y="4.32029" width="5.2806" height="0.72" fill="#8fcdf7"/><rect x="12.7188" y="5.76029" width="5.2806" height="0.72" fill="#8fcdf7"/><rect x="12.7188" y="7.20029" width="5.2806" height="0.72" fill="#8fcdf7"/><rect x="12.7188" y="8.64029" width="5.2806" height="0.72" fill="#8fcdf7"/><rect x="12.7188" y="10.08029" width="5.2806" height="0.72" fill="#8fcdf7"/><rect x="12.7188" y="11.52029" width="5.2806" height="0.72" fill="#8fcdf7"/><rect x="12.7188" y="12.96029" width="5.2806" height="0.72" fill="#8fcdf7"/><rect x="12.7188" y="14.40029" width="5.2806" height="0.72" fill="#8fcdf7"/><rect x="12.7188" y="15.84029" width="5.2806" height="0.72" fill="#8fcdf7"/><rect x="6.7195" y="2.88029" width="5.2807" height="0.72" fill="#8fcdf7"/><rect x="6.7195" y="4.32029" width="5.2807" height="0.72" fill="#8fcdf7"/><rect x="6.7195" y="5.76029" width="5.2807" height="0.72" fill="#8fcdf7"/><rect x="6.7195" y="7.20029" width="5.2807" height="0.72" fill="#8fcdf7"/><rect x="6.7195" y="8.64029" width="5.2807" height="0.72" fill="#8fcdf7"/><rect x="6.7195" y="10.08029" width="5.2807" height="0.72" fill="#8fcdf7"/><rect x="6.7195" y="11.52029" width="5.2807" height="0.72" fill="#8fcdf7"/><rect x="6.7195" y="12.96029" width="5.2807" height="0.72" fill="#8fcdf7"/><rect x="6.7195" y="14.40029" width="5.2807" height="0.72" fill="#8fcdf7"/><rect x="6.7195" y="15.84029" width="5.2807" height="0.72" fill="#8fcdf7"/></g></g></g></svg>